<svg xmlns="http://www.w3.org/2000/svg" xmlns:xlink="http://www.w3.org/1999/xlink" width="1080" zoomAndPan="magnify" viewBox="0 0 810 809.999993" height="1080" preserveAspectRatio="xMidYMid meet" version="1.0"><defs><clipPath id="id1"><path d="M 262.429688 265.65625 L 586.429688 265.65625 L 586.429688 588 L 262.429688 588 Z M 262.429688 265.65625 " clip-rule="nonzero"/></clipPath><clipPath id="id2"><path d="M 357 328 L 497 328 L 497 589.65625 L 357 589.65625 Z M 357 328 " clip-rule="nonzero"/></clipPath></defs><g clip-path="url(#id1)"><path fill="rgb(9.408569%, 46.669006%, 94.898987%)" d="M 586.429688 427.65625 C 586.429688 338.183594 513.898438 265.65625 424.429688 265.65625 C 334.957031 265.65625 262.429688 338.183594 262.429688 427.65625 C 262.429688 508.515625 321.667969 575.535156 399.117188 587.6875 L 399.117188 474.484375 L 357.984375 474.484375 L 357.984375 427.65625 L 399.117188 427.65625 L 399.117188 391.964844 C 399.117188 351.363281 423.300781 328.9375 460.304688 328.9375 C 478.03125 328.9375 496.570312 332.101562 496.570312 332.101562 L 496.570312 371.96875 L 476.140625 371.96875 C 456.015625 371.96875 449.742188 384.457031 449.742188 397.265625 L 449.742188 427.65625 L 494.671875 427.65625 L 487.488281 474.484375 L 449.742188 474.484375 L 449.742188 587.6875 C 527.1875 575.535156 586.429688 508.515625 586.429688 427.65625 " fill-opacity="1" fill-rule="nonzero"/></g><g clip-path="url(#id2)"><path fill="rgb(100%, 100%, 100%)" d="M 487.488281 474.484375 L 494.671875 427.65625 L 449.742188 427.65625 L 449.742188 397.265625 C 449.742188 384.457031 456.015625 371.96875 476.140625 371.96875 L 496.570312 371.96875 L 496.570312 332.101562 C 496.570312 332.101562 478.03125 328.9375 460.304688 328.9375 C 423.300781 328.9375 399.117188 351.363281 399.117188 391.964844 L 399.117188 427.65625 L 357.984375 427.65625 L 357.984375 474.484375 L 399.117188 474.484375 L 399.117188 587.6875 C 407.363281 588.980469 415.816406 589.65625 424.429688 589.65625 C 433.039062 589.65625 441.492188 588.980469 449.742188 587.6875 L 449.742188 474.484375 L 487.488281 474.484375 " fill-opacity="1" fill-rule="nonzero"/></g></svg>