<svg xmlns="http://www.w3.org/2000/svg" xmlns:xlink="http://www.w3.org/1999/xlink" width="1080" zoomAndPan="magnify" viewBox="0 0 810 809.999993" height="1080" preserveAspectRatio="xMidYMid meet" version="1.0"><defs><clipPath id="id1"><path d="M 249.855469 255.847656 L 573.855469 255.847656 L 573.855469 579.847656 L 249.855469 579.847656 Z M 249.855469 255.847656 " clip-rule="nonzero"/></clipPath><clipPath id="id2"><path d="M 573.855469 497.632812 C 573.855469 499.40625 573.800781 503.253906 573.695312 506.222656 C 573.433594 513.496094 572.859375 522.878906 571.988281 527.15625 C 570.675781 533.578125 568.699219 539.644531 566.121094 544.691406 C 563.070312 550.664062 559.175781 556.011719 554.550781 560.628906 C 549.9375 565.234375 544.59375 569.109375 538.632812 572.148438 C 533.558594 574.734375 527.457031 576.714844 520.996094 578.019531 C 516.761719 578.871094 507.449219 579.4375 500.222656 579.695312 C 497.25 579.800781 493.398438 579.855469 491.632812 579.855469 L 332.089844 579.828125 C 330.316406 579.828125 326.46875 579.773438 323.5 579.667969 C 316.226562 579.40625 306.84375 578.832031 302.566406 577.960938 C 296.140625 576.648438 290.078125 574.671875 285.03125 572.09375 C 279.058594 569.042969 273.710938 565.148438 269.09375 560.523438 C 264.488281 555.910156 260.613281 550.566406 257.574219 544.605469 C 254.988281 539.53125 253.007812 533.429688 251.703125 526.96875 C 250.847656 522.734375 250.285156 513.421875 250.027344 506.195312 C 249.921875 503.222656 249.867188 499.375 249.867188 497.605469 L 249.890625 338.066406 C 249.890625 336.289062 249.945312 332.445312 250.054688 329.472656 C 250.3125 322.199219 250.890625 312.816406 251.761719 308.539062 C 253.074219 302.117188 255.050781 296.050781 257.628906 291.003906 C 260.679688 285.03125 264.570312 279.683594 269.195312 275.066406 C 273.8125 270.460938 279.15625 266.585938 285.117188 263.546875 C 290.191406 260.960938 296.292969 258.980469 302.753906 257.675781 C 306.988281 256.824219 316.300781 256.257812 323.527344 256 C 326.5 255.894531 330.347656 255.839844 332.117188 255.839844 L 491.65625 255.867188 C 493.433594 255.867188 497.277344 255.921875 500.25 256.027344 C 507.523438 256.289062 516.90625 256.863281 521.183594 257.734375 C 527.605469 259.046875 533.671875 261.023438 538.71875 263.601562 C 544.691406 266.652344 550.039062 270.546875 554.652344 275.171875 C 559.261719 279.785156 563.136719 285.128906 566.175781 291.089844 C 568.761719 296.164062 570.742188 302.265625 572.046875 308.726562 C 572.898438 312.960938 573.464844 322.273438 573.722656 329.5 C 573.828125 332.472656 573.882812 336.324219 573.882812 338.089844 Z M 573.855469 497.632812 " clip-rule="nonzero"/></clipPath><linearGradient x1="512" gradientTransform="matrix(0.316406, 0, 0, 0.316406, 249.887801, 255.532728)" y1="1.000046" x2="512" gradientUnits="userSpaceOnUse" y2="1025.000004" id="id3"><stop stop-opacity="1" stop-color="rgb(37.998962%, 99.198914%, 48.999023%)" offset="0"/><stop stop-opacity="1" stop-color="rgb(37.916565%, 99.093628%, 48.864746%)" offset="0.0078125"/><stop stop-opacity="1" stop-color="rgb(37.75177%, 98.881531%, 48.597717%)" offset="0.015625"/><stop stop-opacity="1" stop-color="rgb(37.586975%, 98.670959%, 48.332214%)" offset="0.0234375"/><stop stop-opacity="1" stop-color="rgb(37.42218%, 98.460388%, 48.065186%)" offset="0.03125"/><stop stop-opacity="1" stop-color="rgb(37.257385%, 98.249817%, 47.799683%)" offset="0.0390625"/><stop stop-opacity="1" stop-color="rgb(37.09259%, 98.03772%, 47.532654%)" offset="0.046875"/><stop stop-opacity="1" stop-color="rgb(36.927795%, 97.827148%, 47.267151%)" offset="0.0546875"/><stop stop-opacity="1" stop-color="rgb(36.763%, 97.616577%, 47.000122%)" offset="0.0625"/><stop stop-opacity="1" stop-color="rgb(36.598206%, 97.406006%, 46.733093%)" offset="0.0703125"/><stop stop-opacity="1" stop-color="rgb(36.433411%, 97.193909%, 46.46759%)" offset="0.078125"/><stop stop-opacity="1" stop-color="rgb(36.268616%, 96.983337%, 46.200562%)" offset="0.0859375"/><stop stop-opacity="1" stop-color="rgb(36.103821%, 96.772766%, 45.935059%)" offset="0.09375"/><stop stop-opacity="1" stop-color="rgb(35.9375%, 96.562195%, 45.66803%)" offset="0.101562"/><stop stop-opacity="1" stop-color="rgb(35.772705%, 96.351624%, 45.401001%)" offset="0.109375"/><stop stop-opacity="1" stop-color="rgb(35.60791%, 96.139526%, 45.135498%)" offset="0.117188"/><stop stop-opacity="1" stop-color="rgb(35.443115%, 95.928955%, 44.868469%)" offset="0.125"/><stop stop-opacity="1" stop-color="rgb(35.27832%, 95.718384%, 44.602966%)" offset="0.132812"/><stop stop-opacity="1" stop-color="rgb(35.113525%, 95.507812%, 44.335938%)" offset="0.140625"/><stop stop-opacity="1" stop-color="rgb(34.94873%, 95.295715%, 44.068909%)" offset="0.148438"/><stop stop-opacity="1" stop-color="rgb(34.783936%, 95.085144%, 43.803406%)" offset="0.15625"/><stop stop-opacity="1" stop-color="rgb(34.619141%, 94.874573%, 43.536377%)" offset="0.164062"/><stop stop-opacity="1" stop-color="rgb(34.454346%, 94.664001%, 43.270874%)" offset="0.171875"/><stop stop-opacity="1" stop-color="rgb(34.289551%, 94.451904%, 43.003845%)" offset="0.179687"/><stop stop-opacity="1" stop-color="rgb(34.124756%, 94.241333%, 42.738342%)" offset="0.1875"/><stop stop-opacity="1" stop-color="rgb(33.959961%, 94.030762%, 42.471313%)" offset="0.195312"/><stop stop-opacity="1" stop-color="rgb(33.795166%, 93.82019%, 42.204285%)" offset="0.203125"/><stop stop-opacity="1" stop-color="rgb(33.630371%, 93.608093%, 41.938782%)" offset="0.210937"/><stop stop-opacity="1" stop-color="rgb(33.465576%, 93.397522%, 41.671753%)" offset="0.21875"/><stop stop-opacity="1" stop-color="rgb(33.300781%, 93.186951%, 41.40625%)" offset="0.226562"/><stop stop-opacity="1" stop-color="rgb(33.135986%, 92.976379%, 41.139221%)" offset="0.234375"/><stop stop-opacity="1" stop-color="rgb(32.971191%, 92.764282%, 40.872192%)" offset="0.242187"/><stop stop-opacity="1" stop-color="rgb(32.806396%, 92.553711%, 40.606689%)" offset="0.25"/><stop stop-opacity="1" stop-color="rgb(32.641602%, 92.34314%, 40.339661%)" offset="0.257812"/><stop stop-opacity="1" stop-color="rgb(32.476807%, 92.132568%, 40.074158%)" offset="0.265625"/><stop stop-opacity="1" stop-color="rgb(32.312012%, 91.921997%, 39.807129%)" offset="0.273437"/><stop stop-opacity="1" stop-color="rgb(32.147217%, 91.7099%, 39.5401%)" offset="0.28125"/><stop stop-opacity="1" stop-color="rgb(31.982422%, 91.499329%, 39.274597%)" offset="0.289062"/><stop stop-opacity="1" stop-color="rgb(31.817627%, 91.288757%, 39.007568%)" offset="0.296875"/><stop stop-opacity="1" stop-color="rgb(31.652832%, 91.078186%, 38.742065%)" offset="0.304687"/><stop stop-opacity="1" stop-color="rgb(31.488037%, 90.866089%, 38.475037%)" offset="0.3125"/><stop stop-opacity="1" stop-color="rgb(31.323242%, 90.655518%, 38.209534%)" offset="0.320312"/><stop stop-opacity="1" stop-color="rgb(31.158447%, 90.444946%, 37.942505%)" offset="0.328125"/><stop stop-opacity="1" stop-color="rgb(30.993652%, 90.234375%, 37.675476%)" offset="0.335937"/><stop stop-opacity="1" stop-color="rgb(30.828857%, 90.022278%, 37.409973%)" offset="0.34375"/><stop stop-opacity="1" stop-color="rgb(30.664062%, 89.811707%, 37.142944%)" offset="0.351562"/><stop stop-opacity="1" stop-color="rgb(30.499268%, 89.601135%, 36.877441%)" offset="0.359375"/><stop stop-opacity="1" stop-color="rgb(30.332947%, 89.390564%, 36.610413%)" offset="0.367187"/><stop stop-opacity="1" stop-color="rgb(30.168152%, 89.178467%, 36.343384%)" offset="0.375"/><stop stop-opacity="1" stop-color="rgb(30.003357%, 88.967896%, 36.077881%)" offset="0.382812"/><stop stop-opacity="1" stop-color="rgb(29.838562%, 88.757324%, 35.810852%)" offset="0.390625"/><stop stop-opacity="1" stop-color="rgb(29.673767%, 88.546753%, 35.545349%)" offset="0.398437"/><stop stop-opacity="1" stop-color="rgb(29.508972%, 88.336182%, 35.27832%)" offset="0.40625"/><stop stop-opacity="1" stop-color="rgb(29.344177%, 88.124084%, 35.011292%)" offset="0.414062"/><stop stop-opacity="1" stop-color="rgb(29.179382%, 87.913513%, 34.745789%)" offset="0.421875"/><stop stop-opacity="1" stop-color="rgb(29.014587%, 87.702942%, 34.47876%)" offset="0.429687"/><stop stop-opacity="1" stop-color="rgb(28.849792%, 87.492371%, 34.213257%)" offset="0.4375"/><stop stop-opacity="1" stop-color="rgb(28.684998%, 87.280273%, 33.946228%)" offset="0.445312"/><stop stop-opacity="1" stop-color="rgb(28.520203%, 87.069702%, 33.680725%)" offset="0.453125"/><stop stop-opacity="1" stop-color="rgb(28.355408%, 86.859131%, 33.413696%)" offset="0.460937"/><stop stop-opacity="1" stop-color="rgb(28.190613%, 86.64856%, 33.146667%)" offset="0.46875"/><stop stop-opacity="1" stop-color="rgb(28.025818%, 86.436462%, 32.881165%)" offset="0.476562"/><stop stop-opacity="1" stop-color="rgb(27.861023%, 86.225891%, 32.614136%)" offset="0.484375"/><stop stop-opacity="1" stop-color="rgb(27.696228%, 86.01532%, 32.348633%)" offset="0.492187"/><stop stop-opacity="1" stop-color="rgb(27.531433%, 85.804749%, 32.081604%)" offset="0.5"/><stop stop-opacity="1" stop-color="rgb(27.366638%, 85.592651%, 31.814575%)" offset="0.507812"/><stop stop-opacity="1" stop-color="rgb(27.201843%, 85.38208%, 31.549072%)" offset="0.515625"/><stop stop-opacity="1" stop-color="rgb(27.037048%, 85.171509%, 31.282043%)" offset="0.523438"/><stop stop-opacity="1" stop-color="rgb(26.872253%, 84.960938%, 31.016541%)" offset="0.53125"/><stop stop-opacity="1" stop-color="rgb(26.707458%, 84.74884%, 30.749512%)" offset="0.539062"/><stop stop-opacity="1" stop-color="rgb(26.542664%, 84.538269%, 30.482483%)" offset="0.546875"/><stop stop-opacity="1" stop-color="rgb(26.377869%, 84.327698%, 30.21698%)" offset="0.554688"/><stop stop-opacity="1" stop-color="rgb(26.213074%, 84.117126%, 29.949951%)" offset="0.5625"/><stop stop-opacity="1" stop-color="rgb(26.048279%, 83.906555%, 29.684448%)" offset="0.570312"/><stop stop-opacity="1" stop-color="rgb(25.883484%, 83.694458%, 29.417419%)" offset="0.578125"/><stop stop-opacity="1" stop-color="rgb(25.718689%, 83.483887%, 29.151917%)" offset="0.585938"/><stop stop-opacity="1" stop-color="rgb(25.553894%, 83.273315%, 28.884888%)" offset="0.59375"/><stop stop-opacity="1" stop-color="rgb(25.389099%, 83.062744%, 28.617859%)" offset="0.601562"/><stop stop-opacity="1" stop-color="rgb(25.224304%, 82.850647%, 28.352356%)" offset="0.609375"/><stop stop-opacity="1" stop-color="rgb(25.059509%, 82.640076%, 28.085327%)" offset="0.617188"/><stop stop-opacity="1" stop-color="rgb(24.894714%, 82.429504%, 27.819824%)" offset="0.625"/><stop stop-opacity="1" stop-color="rgb(24.728394%, 82.218933%, 27.552795%)" offset="0.632812"/><stop stop-opacity="1" stop-color="rgb(24.563599%, 82.006836%, 27.285767%)" offset="0.640625"/><stop stop-opacity="1" stop-color="rgb(24.398804%, 81.796265%, 27.020264%)" offset="0.648437"/><stop stop-opacity="1" stop-color="rgb(24.234009%, 81.585693%, 26.753235%)" offset="0.65625"/><stop stop-opacity="1" stop-color="rgb(24.069214%, 81.375122%, 26.487732%)" offset="0.664062"/><stop stop-opacity="1" stop-color="rgb(23.904419%, 81.163025%, 26.220703%)" offset="0.671875"/><stop stop-opacity="1" stop-color="rgb(23.739624%, 80.952454%, 25.953674%)" offset="0.679687"/><stop stop-opacity="1" stop-color="rgb(23.574829%, 80.741882%, 25.688171%)" offset="0.6875"/><stop stop-opacity="1" stop-color="rgb(23.410034%, 80.531311%, 25.421143%)" offset="0.695312"/><stop stop-opacity="1" stop-color="rgb(23.245239%, 80.319214%, 25.15564%)" offset="0.703125"/><stop stop-opacity="1" stop-color="rgb(23.080444%, 80.108643%, 24.888611%)" offset="0.710938"/><stop stop-opacity="1" stop-color="rgb(22.915649%, 79.898071%, 24.623108%)" offset="0.71875"/><stop stop-opacity="1" stop-color="rgb(22.750854%, 79.6875%, 24.356079%)" offset="0.726562"/><stop stop-opacity="1" stop-color="rgb(22.58606%, 79.476929%, 24.08905%)" offset="0.734375"/><stop stop-opacity="1" stop-color="rgb(22.421265%, 79.264832%, 23.823547%)" offset="0.742188"/><stop stop-opacity="1" stop-color="rgb(22.25647%, 79.05426%, 23.556519%)" offset="0.75"/><stop stop-opacity="1" stop-color="rgb(22.091675%, 78.843689%, 23.291016%)" offset="0.757812"/><stop stop-opacity="1" stop-color="rgb(21.92688%, 78.633118%, 23.023987%)" offset="0.765625"/><stop stop-opacity="1" stop-color="rgb(21.762085%, 78.421021%, 22.756958%)" offset="0.773438"/><stop stop-opacity="1" stop-color="rgb(21.59729%, 78.210449%, 22.491455%)" offset="0.78125"/><stop stop-opacity="1" stop-color="rgb(21.432495%, 77.999878%, 22.224426%)" offset="0.789062"/><stop stop-opacity="1" stop-color="rgb(21.2677%, 77.789307%, 21.958923%)" offset="0.796875"/><stop stop-opacity="1" stop-color="rgb(21.102905%, 77.577209%, 21.691895%)" offset="0.804687"/><stop stop-opacity="1" stop-color="rgb(20.93811%, 77.366638%, 21.424866%)" offset="0.8125"/><stop stop-opacity="1" stop-color="rgb(20.773315%, 77.156067%, 21.159363%)" offset="0.820312"/><stop stop-opacity="1" stop-color="rgb(20.608521%, 76.945496%, 20.892334%)" offset="0.828125"/><stop stop-opacity="1" stop-color="rgb(20.443726%, 76.733398%, 20.626831%)" offset="0.835938"/><stop stop-opacity="1" stop-color="rgb(20.278931%, 76.522827%, 20.359802%)" offset="0.84375"/><stop stop-opacity="1" stop-color="rgb(20.114136%, 76.312256%, 20.094299%)" offset="0.851562"/><stop stop-opacity="1" stop-color="rgb(19.949341%, 76.101685%, 19.827271%)" offset="0.859375"/><stop stop-opacity="1" stop-color="rgb(19.784546%, 75.891113%, 19.560242%)" offset="0.867188"/><stop stop-opacity="1" stop-color="rgb(19.619751%, 75.679016%, 19.294739%)" offset="0.875"/><stop stop-opacity="1" stop-color="rgb(19.454956%, 75.468445%, 19.02771%)" offset="0.882812"/><stop stop-opacity="1" stop-color="rgb(19.288635%, 75.257874%, 18.762207%)" offset="0.890625"/><stop stop-opacity="1" stop-color="rgb(19.12384%, 75.047302%, 18.495178%)" offset="0.898438"/><stop stop-opacity="1" stop-color="rgb(18.959045%, 74.835205%, 18.228149%)" offset="0.90625"/><stop stop-opacity="1" stop-color="rgb(18.79425%, 74.624634%, 17.962646%)" offset="0.914062"/><stop stop-opacity="1" stop-color="rgb(18.629456%, 74.414062%, 17.695618%)" offset="0.921875"/><stop stop-opacity="1" stop-color="rgb(18.464661%, 74.203491%, 17.430115%)" offset="0.929687"/><stop stop-opacity="1" stop-color="rgb(18.299866%, 73.991394%, 17.163086%)" offset="0.9375"/><stop stop-opacity="1" stop-color="rgb(18.135071%, 73.780823%, 16.896057%)" offset="0.945312"/><stop stop-opacity="1" stop-color="rgb(17.970276%, 73.570251%, 16.630554%)" offset="0.953125"/><stop stop-opacity="1" stop-color="rgb(17.805481%, 73.35968%, 16.363525%)" offset="0.960938"/><stop stop-opacity="1" stop-color="rgb(17.640686%, 73.147583%, 16.098022%)" offset="0.96875"/><stop stop-opacity="1" stop-color="rgb(17.475891%, 72.937012%, 15.830994%)" offset="0.976562"/><stop stop-opacity="1" stop-color="rgb(17.311096%, 72.72644%, 15.565491%)" offset="0.984375"/><stop stop-opacity="1" stop-color="rgb(17.146301%, 72.515869%, 15.298462%)" offset="0.992188"/><stop stop-opacity="1" stop-color="rgb(16.981506%, 72.303772%, 15.031433%)" offset="1"/></linearGradient></defs><g clip-path="url(#id1)"><g clip-path="url(#id2)"><path fill="url(#id3)" d="M 249.867188 255.847656 L 249.867188 579.847656 L 573.855469 579.847656 L 573.855469 255.847656 Z M 249.867188 255.847656 " fill-rule="nonzero"/></g></g><path fill="rgb(100%, 100%, 100%)" d="M 497.730469 332.5 C 475.792969 310.542969 446.621094 298.445312 415.539062 298.433594 C 351.5 298.433594 299.375 350.535156 299.351562 414.578125 C 299.34375 435.046875 304.695312 455.03125 314.859375 472.644531 L 298.378906 532.835938 L 359.96875 516.683594 C 376.941406 525.9375 396.046875 530.8125 415.492188 530.820312 L 415.539062 530.820312 C 479.574219 530.820312 531.703125 478.710938 531.726562 414.671875 C 531.738281 383.636719 519.664062 354.453125 497.730469 332.496094 Z M 415.539062 511.203125 L 415.5 511.203125 C 398.171875 511.199219 381.175781 506.542969 366.347656 497.75 L 362.824219 495.65625 L 326.269531 505.242188 L 336.027344 469.617188 L 333.730469 465.964844 C 324.0625 450.59375 318.957031 432.828125 318.964844 414.585938 C 318.988281 361.355469 362.308594 318.050781 415.578125 318.050781 C 441.371094 318.0625 465.617188 328.117188 483.851562 346.363281 C 502.085938 364.609375 512.121094 388.867188 512.109375 414.664062 C 512.089844 467.894531 468.769531 511.203125 415.539062 511.203125 Z M 468.511719 438.898438 C 465.609375 437.445312 451.335938 430.425781 448.675781 429.457031 C 446.011719 428.488281 444.078125 428.003906 442.140625 430.910156 C 440.207031 433.816406 434.644531 440.351562 432.949219 442.289062 C 431.257812 444.226562 429.5625 444.46875 426.660156 443.015625 C 423.757812 441.5625 414.402344 438.5 403.3125 428.609375 C 394.683594 420.917969 388.855469 411.410156 387.164062 408.503906 C 385.46875 405.601562 386.984375 404.03125 388.4375 402.582031 C 389.742188 401.28125 391.339844 399.191406 392.789062 397.5 C 394.242188 395.804688 394.726562 394.59375 395.695312 392.65625 C 396.660156 390.71875 396.175781 389.023438 395.453125 387.570312 C 394.726562 386.117188 388.917969 371.832031 386.5 366.023438 C 384.144531 360.363281 381.75 361.128906 379.96875 361.039062 C 378.277344 360.957031 376.339844 360.9375 374.40625 360.9375 C 372.46875 360.9375 369.324219 361.664062 366.664062 364.570312 C 364 367.476562 356.503906 374.496094 356.503906 388.78125 C 356.503906 403.066406 366.90625 416.867188 368.355469 418.804688 C 369.808594 420.742188 388.828125 450.054688 417.949219 462.625 C 424.875 465.617188 430.285156 467.402344 434.5 468.738281 C 441.453125 470.949219 447.785156 470.636719 452.785156 469.890625 C 458.363281 469.054688 469.960938 462.867188 472.382812 456.089844 C 474.800781 449.308594 474.800781 443.5 474.074219 442.289062 C 473.351562 441.078125 471.414062 440.351562 468.511719 438.898438 Z M 468.511719 438.898438 " fill-opacity="1" fill-rule="nonzero"/></svg>